<svg width="18" height="19" viewBox="0 0 18 19" fill="none" xmlns="http://www.w3.org/2000/svg">
<path d="M6.58916 3.54002C7.0875 2.08169 9.1025 2.03752 9.69333 3.40752L9.74333 3.54085L10.4158 5.50752C10.5699 5.95855 10.819 6.37128 11.1462 6.71787C11.4734 7.06447 11.8711 7.33686 12.3125 7.51669L12.4933 7.58419L14.46 8.25585C15.9183 8.75419 15.9625 10.7692 14.5933 11.36L14.46 11.41L12.4933 12.0825C12.0421 12.2365 11.6293 12.4855 11.2825 12.8127C10.9358 13.1399 10.6632 13.5377 10.4833 13.9792L10.4158 14.1592L9.74416 16.1267C9.24583 17.585 7.23083 17.6292 6.64083 16.26L6.58916 16.1267L5.9175 14.16C5.76348 13.7088 5.51447 13.2959 5.18728 12.9492C4.86009 12.6025 4.46232 12.3299 4.02083 12.15L3.84083 12.0825L1.87416 11.4109C0.414995 10.9125 0.370829 8.89752 1.74083 8.30752L1.87416 8.25585L3.84083 7.58419C4.29186 7.43007 4.70459 7.18102 5.05118 6.85383C5.39778 6.52664 5.67017 6.12893 5.85 5.68752L5.9175 5.50752L6.58916 3.54002ZM14.8333 0.666687C14.9892 0.666687 15.142 0.710419 15.2743 0.792913C15.4066 0.875408 15.5131 0.993356 15.5817 1.13335L15.6217 1.23085L15.9133 2.08585L16.7692 2.37752C16.9254 2.4306 17.0624 2.52887 17.1627 2.65987C17.263 2.79087 17.3222 2.9487 17.3327 3.11337C17.3433 3.27804 17.3047 3.44213 17.2218 3.58484C17.139 3.72756 17.0157 3.84247 16.8675 3.91502L16.7692 3.95502L15.9142 4.24669L15.6225 5.10252C15.5693 5.25871 15.471 5.3956 15.3399 5.49585C15.2089 5.59609 15.051 5.65518 14.8864 5.66562C14.7217 5.67606 14.5576 5.63739 14.415 5.5545C14.2723 5.47161 14.1575 5.34824 14.085 5.20002L14.045 5.10252L13.7533 4.24752L12.8975 3.95585C12.7413 3.90277 12.6043 3.80451 12.504 3.67351C12.4036 3.54251 12.3445 3.38467 12.3339 3.22C12.3234 3.05533 12.362 2.89124 12.4448 2.74853C12.5276 2.60582 12.651 2.4909 12.7992 2.41835L12.8975 2.37835L13.7525 2.08669L14.0442 1.23085C14.1004 1.06621 14.2067 0.923278 14.3482 0.822103C14.4897 0.720928 14.6594 0.666583 14.8333 0.666687Z" fill="white" fill-opacity="0.8"/>
</svg>
